<svg width="24" height="25" viewBox="0 0 24 25" fill="none" xmlns="http://www.w3.org/2000/svg"><g clip-path="url(#clip0_1_16)"><path d="M0 0.5H24V24.5H0V0.5Z" fill="#F7DF1E"></path><path d="M6.31052 20.5562L8.14708 19.4447C8.50146 20.0729 8.82377 20.6045 9.59692 20.6045C10.338 20.6045 10.8054 20.3146 10.8054 19.187V11.5184H13.0607V19.2188C13.0607 21.5548 11.6914 22.6181 9.69358 22.6181C7.88936 22.6181 6.84208 21.6837 6.31042 20.556M14.2857 20.3145L16.1221 19.2513C16.6056 20.0407 17.2339 20.6207 18.3454 20.6207C19.28 20.6207 19.8759 20.1534 19.8759 19.509C19.8759 18.7357 19.2637 18.4618 18.2326 18.0109L17.6689 17.769C16.0417 17.0765 14.9623 16.2065 14.9623 14.3699C14.9623 12.6783 16.2511 11.3894 18.265 11.3894C19.6988 11.3894 20.7298 11.8889 21.4708 13.1938L19.7147 14.3216C19.328 13.6289 18.9093 13.3551 18.2649 13.3551C17.6043 13.3551 17.1854 13.7739 17.1854 14.3216C17.1854 14.9982 17.6043 15.2722 18.5709 15.6911L19.1347 15.9327C21.0519 16.7544 22.1312 17.5921 22.1312 19.4768C22.1312 21.5069 20.5363 22.6184 18.3937 22.6184C16.2994 22.6184 14.9461 21.6196 14.2856 20.3146" fill="black"></path></g><defs><clipPath id="clip0_1_16"><rect width="24" height="24" fill="white" transform="translate(0 0.5)"></rect></clipPath></defs></svg>