<svg width="24" height="15" viewBox="0 0 24 15" fill="none" xmlns="http://www.w3.org/2000/svg"><path d="M12.0008 0.300415C8.8007 0.300415 6.80139 1.89979 6.00076 5.09985C7.20039 3.50029 8.60083 2.90048 10.2004 3.30042C11.1137 3.52804 11.7664 4.19029 12.4892 4.92417C13.6656 6.11798 15.0272 7.50004 18.0008 7.50004C21.2006 7.50004 23.2001 5.90048 24.0008 2.69966C22.801 4.30016 21.4007 4.89998 19.801 4.50004C18.8878 4.27223 18.2359 3.61017 17.5121 2.87629C16.3365 1.68248 14.9753 0.300415 12.0008 0.300415ZM6.00076 7.50004C2.80089 7.50004 0.801388 9.0996 0.000762939 12.3004C1.20039 10.6999 2.60064 10.1001 4.20039 10.5C5.1137 10.7279 5.76639 11.3899 6.4892 12.1238C7.66558 13.3176 9.0272 14.6997 12.0008 14.6997C15.2006 14.6997 17.2001 13.1003 18.0008 9.90023C16.801 11.4998 15.4007 12.0996 13.801 11.6997C12.8878 11.472 12.2359 10.8098 11.5121 10.0759C10.3365 8.8821 8.97526 7.50004 6.00076 7.50004Z" fill="#38BDF8"></path></svg>