<svg width="24" height="25" viewBox="0 0 24 25" fill="none" xmlns="http://www.w3.org/2000/svg"><g clip-path="url(#clip0_1_7)"><path d="M1.875 0.5H22.125C23.1606 0.5 24 1.33944 24 2.375V22.625C24 23.6606 23.1606 24.5 22.125 24.5H1.875C0.839438 24.5 0 23.6606 0 22.625V2.375C0 1.33944 0.839438 0.5 1.875 0.5Z" fill="#3178C6"></path><path d="M14.1111 19.2945V21.8839C14.5322 22.0997 15.0303 22.2615 15.6052 22.3694C16.1802 22.4773 16.7862 22.5312 17.4233 22.5312C18.0442 22.5312 18.634 22.4719 19.1928 22.3532C19.7515 22.2345 20.2416 22.039 20.6626 21.7666C21.0837 21.4942 21.4171 21.1381 21.6628 20.6984C21.9084 20.2588 22.0312 19.7154 22.0312 19.068C22.0312 18.5987 21.961 18.1873 21.8207 17.834C21.6819 17.483 21.4755 17.1628 21.2133 16.8913C20.9488 16.6162 20.6316 16.3694 20.2618 16.1509C19.892 15.9325 19.4749 15.7261 19.0105 15.532C18.6704 15.3916 18.3654 15.2555 18.0954 15.1233C17.8255 14.9911 17.596 14.8563 17.4071 14.7187C17.2181 14.5812 17.0723 14.4355 16.9698 14.2817C16.8672 14.128 16.8159 13.9541 16.8159 13.7598C16.8159 13.5818 16.8618 13.4214 16.9536 13.2784C17.0453 13.1354 17.175 13.0127 17.3423 12.9103C17.5097 12.8077 17.7148 12.7282 17.9578 12.6715C18.2007 12.6148 18.4707 12.5865 18.7676 12.5865C18.9836 12.5865 19.2117 12.6027 19.4519 12.6351C19.6922 12.6674 19.9338 12.7173 20.1768 12.7848C20.419 12.852 20.6559 12.9372 20.8853 13.0397C21.1079 13.1383 21.3207 13.2575 21.5211 13.3957V10.9763C21.1269 10.8253 20.6963 10.7133 20.2294 10.6405C19.7624 10.5676 19.2265 10.5312 18.6218 10.5312C18.0064 10.5312 17.4233 10.5973 16.8727 10.7295C16.322 10.8616 15.8374 11.068 15.419 11.3485C15.0006 11.6291 14.6699 11.9864 14.4269 12.4207C14.184 12.8549 14.0625 13.3741 14.0625 13.9783C14.0625 14.7497 14.2852 15.4078 14.7307 15.9527C15.1761 16.4975 15.8522 16.9587 16.7592 17.3364C17.0941 17.4727 17.4262 17.6157 17.7553 17.7653C18.0631 17.9055 18.329 18.0511 18.553 18.2022C18.7771 18.3532 18.9539 18.5177 19.0835 18.6957C19.213 18.8738 19.2778 19.0761 19.2778 19.3027C19.2789 19.4658 19.237 19.6262 19.1563 19.768C19.0754 19.9108 18.9525 20.035 18.7879 20.1402C18.6233 20.2453 18.418 20.3276 18.1724 20.3869C17.9268 20.4462 17.6393 20.476 17.3099 20.476C16.7484 20.476 16.1924 20.3775 15.6417 20.1806C15.0909 19.9837 14.5808 19.6884 14.1111 19.2945ZM9.79519 12.8508H13.125V10.7188H3.84375V12.8508H7.15734V22.3438H9.79519V12.8508Z" fill="white"></path></g><defs><clipPath id="clip0_1_7"><rect width="24" height="24" fill="white" transform="translate(0 0.5)"></rect></clipPath></defs></svg>